<?xml version="1.0" standalone="no"?>
<!DOCTYPE svg PUBLIC "-//W3C//DTD SVG 20010904//EN"
 "http://www.w3.org/TR/2001/REC-SVG-20010904/DTD/svg10.dtd">
<svg version="1.0" xmlns="http://www.w3.org/2000/svg"
 width="502.000000pt" height="502.000000pt" viewBox="0 0 502.000000 502.000000"
 preserveAspectRatio="xMidYMid meet">
<metadata>
Created by potrace 1.14, written by Peter Selinger 2001-2017
</metadata>
<g transform="translate(0.000000,502.000000) scale(0.100000,-0.100000)"
fill="#000000" stroke="none">
<path d="M1290 4965 l0 -55 -108 0 -108 0 1 -53 1 -52 -108 0 -108 0 0 -52 0
-53 -108 0 -108 0 1 -52 0 -53 -105 -5 -105 -5 0 -742 c0 -409 -3 -744 -7
-744 -5 -1 -48 -3 -98 -4 -49 -1 -94 -3 -99 -4 -4 0 -8 -22 -7 -48 l1 -48 -55
-5 -55 -5 0 -107 -1 -108 53 0 53 0 0 -55 0 -55 108 0 107 0 0 -97 0 -98 -53
-3 -52 -3 0 -59 0 -59 157 -3 157 -3 1 -46 1 -46 -50 1 -51 1 0 -57 -1 -58
158 0 158 0 0 -55 0 -55 160 0 160 0 0 -53 0 -52 103 0 c56 0 108 4 114 8 8 5
11 25 9 53 l-3 45 101 -3 101 -3 0 -97 1 -98 -53 0 -52 0 -3 -107 -3 -108 -45
1 c-25 1 -48 -2 -51 -8 -3 -5 -5 -29 -4 -54 l1 -44 -53 0 -53 0 0 -55 0 -55
-53 0 -53 0 1 -105 1 -105 -106 0 -107 0 2 44 c1 24 0 48 -4 53 -7 10 -314 12
-321 2 -3 -4 -5 -198 -5 -431 l0 -423 55 -5 c60 -5 58 -4 51 -84 -1 -10 -14
-13 -51 -11 l-50 3 0 -112 0 -112 54 1 53 1 -2 -53 -2 -53 1446 2 1446 3 0 45
0 45 105 5 105 5 0 270 0 270 -50 0 -50 0 -5 105 -5 106 -51 -1 -50 -1 1 108
1 108 -53 0 c-35 0 -53 4 -54 13 -1 6 -3 50 -4 97 -1 47 -3 90 -4 96 0 7 -20
11 -48 10 l-48 -1 -5 105 -5 106 -50 -1 -51 -1 1 101 0 100 108 3 107 3 0 59
0 60 -56 0 -55 0 3 47 3 48 101 0 101 0 -2 -52 -2 -53 161 -2 161 -3 0 -52 -1
-53 58 0 58 0 0 60 0 60 -42 0 c-24 0 -48 4 -53 8 -6 4 -11 47 -10 100 l0 93
100 -3 100 -3 1 -42 c1 -24 2 -47 3 -51 0 -4 48 -8 106 -7 l105 1 0 -53 0 -52
107 -3 108 -3 0 -50 0 -50 58 0 57 -1 0 58 0 58 -49 0 c-30 0 -50 5 -53 13 -2
6 -4 54 -3 105 l1 92 -53 0 c-35 0 -53 4 -54 13 -1 6 -2 30 -3 52 l-1 40 -52
3 -53 3 0 45 c0 24 3 45 8 45 4 1 97 2 208 3 l201 1 -2 -52 -2 -53 58 0 59 0
0 58 0 58 -37 -1 c-58 -2 -63 2 -63 56 l0 49 -55 0 -55 0 0 54 0 55 -52 3 -53
3 0 50 0 50 -50 0 -50 0 -3 53 -3 52 -55 0 -54 0 0 959 0 960 -52 3 -53 3 0
53 1 52 -266 0 -267 0 2 43 c1 23 1 47 -2 52 -2 7 -164 10 -471 10 -257 -1
-472 0 -478 2 -5 2 -10 25 -9 51 l1 47 -376 5 -375 5 0 53 1 52 -378 0 -378 0
0 -55z"/>
</g>
</svg>
